<svg data-v-423bf9ae="" xmlns="http://www.w3.org/2000/svg" viewBox="0 0 413 90" class="iconLeftSlogan"><!----><!----><!----><g data-v-423bf9ae="" id="a8056456-0fee-422c-af5e-f6342732eaf6" fill="black" transform="matrix(6.097560881055492,0,0,6.097560881055492,108.95200254630888,-19.390244247231145)"><path d="M2.39 13.02L2.39 13.02L1.20 13.02Q0.91 13.02 0.91 12.73L0.91 12.73L0.91 4.31Q0.91 4.02 1.20 4.02L1.20 4.02L2.39 4.02Q2.69 4.02 2.69 4.31L2.69 4.31L2.69 8.30L2.72 8.30Q2.83 7.97 3.15 7.43L3.15 7.43L5.28 4.31Q5.46 4.02 5.82 4.02L5.82 4.02L7.20 4.02Q7.35 4.02 7.38 4.11Q7.42 4.20 7.31 4.34L7.31 4.34L4.65 8.02L7.62 12.67Q7.71 12.84 7.65 12.93Q7.59 13.02 7.39 13.02L7.39 13.02L6.37 13.02Q5.88 13.02 5.71 12.73L5.71 12.73L3.57 9.30L2.69 10.33L2.69 12.73Q2.69 13.02 2.39 13.02ZM10.07 13.02L10.07 13.02L8.88 13.02Q8.58 13.02 8.58 12.73L8.58 12.73L8.58 6.17Q8.58 5.88 8.88 5.88L8.88 5.88L10.07 5.88Q10.36 5.88 10.36 6.17L10.36 6.17L10.36 6.65L10.42 6.65Q10.57 6.27 10.96 6.08Q11.35 5.88 11.79 5.88L11.79 5.88L12.29 5.88Q12.57 5.88 12.57 6.17L12.57 6.17L12.57 7.14Q12.57 7.31 12.51 7.37Q12.45 7.43 12.29 7.42L12.29 7.42L11.33 7.42Q10.36 7.42 10.36 8.51L10.36 8.51L10.36 12.73Q10.36 13.02 10.07 13.02ZM13.54 4.68L13.54 4.68L13.54 3.46Q13.54 3.18 13.82 3.18L13.82 3.18L15.04 3.18Q15.32 3.18 15.32 3.44L15.32 3.44L15.32 4.68Q15.32 4.96 15.04 4.96L15.04 4.96L13.82 4.96Q13.54 4.96 13.54 4.68ZM13.54 12.73L13.54 12.73L13.54 6.17Q13.54 5.88 13.82 5.88L13.82 5.88L15.02 5.88Q15.32 5.88 15.32 6.17L15.32 6.17L15.32 12.73Q15.32 12.91 15.25 12.96Q15.19 13.02 15.04 13.02L15.04 13.02L13.83 13.02Q13.54 13.02 13.54 12.73ZM18.07 13.02L18.07 13.02L16.66 13.02Q16.30 13.02 16.46 12.73L16.46 12.73L18.23 9.38L16.46 6.17Q16.32 5.88 16.63 5.88L16.63 5.88L18.06 5.88Q18.40 5.88 18.49 6.17L18.49 6.17L19.38 8.30L19.43 8.30L20.20 6.17Q20.30 5.88 20.64 5.88L20.64 5.88L22.04 5.88Q22.40 5.88 22.22 6.17L22.22 6.17L20.54 9.38L22.34 12.73Q22.41 12.85 22.36 12.94Q22.32 13.02 22.18 13.02L22.18 13.02L20.73 13.02Q20.44 13.02 20.31 12.73L20.31 12.73L19.43 10.58L19.38 10.58L18.49 12.73Q18.40 13.02 18.07 13.02ZM26.32 13.02L26.32 13.02L25.14 13.02Q24.84 13.02 24.84 12.73L24.84 12.73L24.84 5.71Q24.84 5.56 24.68 5.56L24.68 5.56L23.09 5.56Q22.79 5.56 22.79 5.26L22.79 5.26L22.79 4.31Q22.79 4.02 23.09 4.02L23.09 4.02L28.38 4.02Q28.67 4.02 28.67 4.31L28.67 4.31L28.67 5.26Q28.67 5.56 28.38 5.56L28.38 5.56L26.78 5.56Q26.61 5.56 26.61 5.71L26.61 5.71L26.61 12.73Q26.61 13.02 26.32 13.02ZM33.01 13.02L33.01 13.02L31.77 13.02Q30.66 13.02 30.06 12.43Q29.46 11.84 29.46 10.74L29.46 10.74L29.46 8.16Q29.46 7.06 30.06 6.47Q30.66 5.88 31.77 5.88L31.77 5.88L33.01 5.88Q34.10 5.88 34.71 6.47Q35.32 7.07 35.32 8.16L35.32 8.16L35.32 10.74Q35.32 11.83 34.71 12.42Q34.10 13.02 33.01 13.02ZM32.03 11.49L32.03 11.49L32.75 11.49Q33.19 11.49 33.38 11.31Q33.57 11.13 33.57 10.68L33.57 10.68L33.57 8.22Q33.57 7.77 33.38 7.59Q33.19 7.41 32.75 7.41L32.75 7.41L32.03 7.41Q31.58 7.41 31.40 7.59Q31.22 7.77 31.22 8.22L31.22 8.22L31.22 10.68Q31.22 11.13 31.40 11.31Q31.58 11.49 32.03 11.49ZM39.34 13.02L39.34 13.02L38.77 13.02Q37.69 13.02 37.13 12.43Q36.58 11.84 36.58 10.74L36.58 10.74L36.58 8.16Q36.58 7.06 37.13 6.47Q37.69 5.88 38.77 5.88L38.77 5.88L39.34 5.88Q39.77 5.88 40.17 6.07Q40.56 6.26 40.71 6.64L40.71 6.64L40.77 6.64L40.77 3.47Q40.77 3.18 41.06 3.18L41.06 3.18L42.25 3.18Q42.55 3.18 42.55 3.47L42.55 3.47L42.55 12.73Q42.55 13.02 42.25 13.02L42.25 13.02L41.06 13.02Q40.77 13.02 40.77 12.73L40.77 12.73L40.77 12.26L40.71 12.26Q40.56 12.64 40.17 12.83Q39.77 13.02 39.34 13.02ZM40.77 10.42L40.77 10.42L40.77 8.48Q40.77 7.42 39.80 7.42L39.80 7.42L39.17 7.42Q38.72 7.42 38.54 7.61Q38.36 7.80 38.36 8.25L38.36 8.25L38.36 10.65Q38.36 11.10 38.54 11.29Q38.72 11.48 39.17 11.48L39.17 11.48L39.80 11.48Q40.77 11.48 40.77 10.42ZM47.50 13.02L47.50 13.02L46.26 13.02Q45.15 13.02 44.55 12.43Q43.95 11.84 43.95 10.74L43.95 10.74L43.95 8.16Q43.95 7.06 44.55 6.47Q45.15 5.88 46.26 5.88L46.26 5.88L47.50 5.88Q48.59 5.88 49.20 6.47Q49.81 7.07 49.81 8.16L49.81 8.16L49.81 10.74Q49.81 11.83 49.20 12.42Q48.59 13.02 47.50 13.02ZM46.52 11.49L46.52 11.49L47.24 11.49Q47.68 11.49 47.87 11.31Q48.06 11.13 48.06 10.68L48.06 10.68L48.06 8.22Q48.06 7.77 47.87 7.59Q47.68 7.41 47.24 7.41L47.24 7.41L46.52 7.41Q46.07 7.41 45.89 7.59Q45.71 7.77 45.71 8.22L45.71 8.22L45.71 10.68Q45.71 11.13 45.89 11.31Q46.07 11.49 46.52 11.49Z"></path></g><!----><g data-v-423bf9ae="" id="2ab101dc-ae7a-40da-a73d-dd6ee572e9a2" transform="matrix(1.0646675269581152,0,0,1.0646675269581152,-5.613742585508341,-7.500304810535432)" stroke="none" fill="black"><path d="M93.7 51.1l-4.42-9.46a7.585 7.585 0 00-4.45-3.97l-5.37-1.79v-3.81a6.8 6.8 0 00.65-7.31l-4.46-8.61a8.05 8.05 0 00-5.97-4.26L42.09 7.83c-2.7-.4-5.48.5-7.43 2.4L7.68 36.36a6.846 6.846 0 00-1.26 8.11l4.17 7.74c.95 1.76 2.5 3.12 4.37 3.82l4.21 1.58-.96 4.82c-.55 2.75-.07 5.59 1.34 8.01l4.5 7.72a4.391 4.391 0 003.79 2.17h1.75l22.8 11.22c.99.49 2.05.72 3.11.72 1.8 0 3.58-.69 4.92-1.99L92.2 59.36c2.2-2.16 2.8-5.47 1.5-8.26zm-10.13-9.64c.07.02.14.07.21.09l-5.96 5.48.36-7.37 5.39 1.8zM47.41 75.99L44.1 75l10.28-2.99-3.27 3.04a3.68 3.68 0 01-3.7.94zm-10.64 1.14L38 80l-4.12-2.03 2.89-.84zm.8-55.57l10.22 2.31-11.02 10.88-9.5-2.82 10.3-10.37zm-12.48 9.72l-4.92-1.46 10.2-9.88 4.89 1.1-10.17 10.24zm43.44 20.18c.45-.78.76-1.64.87-2.57l.79-6.38 4.5 6.83-.55 11.25-5.61-9.13zM31 57.89l-4.11-8.41 4.9 1.78c.73.26 1.49.39 2.24.39.18 0 .36-.01.53-.03l5.46 9.78L31 57.89zm15.65-20.21l-7.69-2.28L50.1 24.39l8.16 1.84-11.61 11.45zm-1.63 1.61l-8.45 8.34c-.98.97-2.45 1.29-3.75.82l-5.16-1.88L37.34 37l7.68 2.29zm-2.75 22.02l-5.68-10.17c.77-.32 1.48-.78 2.09-1.38l9.21-9.08 5.78 9.91-10.8 10.3c-.18.17-.38.31-.6.42zm25-19.54l-.84 6.74a3.832 3.832 0 01-2.87 3.26l-9.29 2.39 13-12.39zm7.6 4.18l-4.29-6.51.08-.62c.01-.1.01-.2.01-.29l4.8-4.57-.6 11.99zm-19.71 3.22l-5.8-9.94 11.55-11.39 5.64 10.47-11.39 10.86zm4.79-24.6l-8.16-1.84 8.3-8.2 8.74 1.29-8.88 8.75zM49.48 22.2l-10.24-2.31 7.31-7.36 11.07 1.63-8.14 8.04zM35.15 36.35l-9.57 9.46-8.89-3.23 8.98-9.04 9.48 2.81zM24.18 48.5l4.07 8.32-6.02-2.34a.488.488 0 00-.07-.03l-.45-.17-1.56-.61a.737.737 0 00-.14-.04l-3.42-7.89 7.59 2.76zm-1.02 9.56l7.41 2.88-8.45 2.36c.01-.04.01-.07.02-.11l1.02-5.13zm15.76 6.13c.69.28 1.41.42 2.13.42 1.42 0 2.82-.54 3.89-1.55l4.98-4.75c.02 0 .03.01.05.01.12 0 .25-.01.37-.05l1.65-.42 5.85 10.03-15.83 4.6-4.82-8.96 1.73.67zm20.9 3.11L54 57.33l10.3-2.65c1.11-.29 2.09-.84 2.9-1.57l6.12 9.95c-.3.29-.66.51-1.08.63L59.82 67.3zm13.26-.73a5.583 5.583 0 004.02-5.1l.03-.58 2.76 4.84-11.56 11.25-4.62-7.69 9.37-2.72zm3.49-39.97c.32.61.39 1.3.24 1.93l-8.75 8.34-5.66-10.5 9.23-9.1c.18.22.35.46.48.72l4.46 8.61zM37.44 13.1a4.847 4.847 0 014.07-1.31l2.58.38-7.15 7.2-4.84-1.09 5.34-5.18zM18.53 31.42l4.96 1.47-8.88 8.94-4.75-1.73c.14-.32.34-.62.6-.87l8.07-7.81zM14.11 50.3l-3.66-6.79 3.56 1.29 3.41 7.87-1.06-.4a4.257 4.257 0 01-2.25-1.97zM23 68.41a7.1 7.1 0 01-.8-2.01l12.41-3.47 5.45 10.13-11.23 3.27h-.98c-.14 0-.26-.07-.33-.19L23 68.41zm17.75 12.95l-2.05-4.79.08-.02c.01 0 .02.01.03.01l7.73 2.31c.64.19 1.29.28 1.93.28h.09l4.96 8.51-12.77-6.3zm16.87 6.04c-.41.4-.92.66-1.46.78l-5.49-9.41c.93-.32 1.8-.84 2.51-1.56l7.3-6.8c.07-.07.11-.15.16-.23l1.07-.31 5.13 8.54-9.22 8.99zM89.4 56.48l-8.03 7.81-4.05-7.12.29-5.87 8.24-7.58 4.23 9.06c.58 1.26.31 2.74-.68 3.7z"></path></g><!----><g data-v-423bf9ae="" id="9e77c6b8-5e8c-4ab2-aa4b-dec9d067f2c2" fill="black" transform="matrix(0.9229505817129654,0,0,0.9229505817129654,114.24235398914222,56.95426254300395)"><path d="M0.28 3.72L0.28 3.72Q0.28 3.50 0.60 3.50L0.60 3.50Q0.64 3.50 0.76 3.49Q0.87 3.49 1.12 3.49L1.12 3.49Q1.19 3.49 1.51 3.51Q1.82 3.53 1.96 3.53L1.96 3.53Q2.27 3.53 3.15 3.51Q4.03 3.49 4.27 3.49L4.27 3.49Q5.59 3.49 6.54 4.15Q7.49 4.82 7.49 6.06L7.49 6.06Q7.49 6.75 7.24 7.29Q6.99 7.83 6.63 8.13Q6.27 8.44 5.83 8.64Q5.39 8.85 5.05 8.91Q4.70 8.97 4.44 8.97L4.44 8.97Q3.99 8.97 3.53 8.87Q3.07 8.76 3.07 8.65L3.07 8.65Q3.07 8.44 3.25 8.44L3.25 8.44Q3.32 8.44 3.54 8.50Q3.75 8.55 3.96 8.55L3.96 8.55Q4.28 8.55 4.65 8.46Q5.01 8.37 5.40 8.17Q5.80 7.97 6.05 7.55Q6.30 7.14 6.30 6.59L6.30 6.59Q6.30 5.66 5.54 4.85Q4.79 4.05 3.46 4.05L3.46 4.05Q3.02 4.05 2.87 4.30Q2.72 4.56 2.72 5.47L2.72 5.47Q2.72 8.39 2.70 8.80Q2.69 9.21 2.69 11.26L2.69 11.26Q2.69 12.49 3.26 12.87L3.26 12.87Q3.42 12.96 3.65 12.99Q3.88 13.02 4.03 13.01Q4.19 13.01 4.30 13.07Q4.42 13.13 4.42 13.30L4.42 13.30Q4.42 13.54 4.10 13.54Q3.78 13.54 2.97 13.50Q2.16 13.47 2.10 13.47L2.10 13.47Q1.96 13.47 1.55 13.50Q1.13 13.52 0.80 13.52L0.80 13.52Q0.36 13.52 0.36 13.37L0.36 13.37Q0.36 13.29 0.39 13.23Q0.41 13.17 0.43 13.14Q0.45 13.10 0.52 13.08Q0.59 13.05 0.62 13.03Q0.64 13.02 0.75 13.00Q0.85 12.98 0.90 12.96L0.90 12.96Q0.92 12.95 0.98 12.94Q1.04 12.94 1.06 12.93Q1.08 12.92 1.13 12.89Q1.18 12.85 1.20 12.79Q1.23 12.73 1.28 12.62Q1.33 12.52 1.39 12.35L1.39 12.35Q1.48 12.08 1.54 10.25Q1.60 8.41 1.60 7.41L1.60 7.41Q1.60 6.54 1.59 5.80Q1.58 5.07 1.58 5.03L1.58 5.03Q1.58 4.65 1.34 4.28Q1.11 3.91 0.56 3.91L0.56 3.91Q0.28 3.91 0.28 3.72ZM15.18 3.71L15.18 3.71Q15.18 3.46 15.55 3.46L15.55 3.46Q15.61 3.46 15.74 3.47Q15.86 3.49 15.93 3.49L15.93 3.49Q16.07 3.49 16.46 3.51Q16.84 3.54 17.15 3.54L17.15 3.54Q17.58 3.54 18.07 3.51Q18.56 3.49 18.62 3.49L18.62 3.49Q18.86 3.49 18.86 3.63L18.86 3.63Q18.86 3.82 18.69 3.88Q18.52 3.95 18.32 3.97Q18.12 3.99 17.93 4.28Q17.74 4.56 17.71 5.14L17.71 5.14Q17.68 5.68 17.64 8.19Q17.60 10.70 17.60 10.99L17.60 10.99L17.60 11.55Q17.60 12.56 17.93 12.66L17.93 12.66Q18.28 12.77 18.54 12.77L18.54 12.77Q19.59 12.77 20.38 12.67Q21.17 12.57 21.57 12.42Q21.97 12.28 22.23 12.10Q22.50 11.93 22.58 11.78Q22.65 11.63 22.73 11.54Q22.81 11.44 22.89 11.44L22.89 11.44Q23.06 11.44 23.06 11.68L23.06 11.68Q23.06 12.28 22.46 12.89Q21.85 13.51 21.41 13.51L21.41 13.51Q20.40 13.51 19.13 13.44Q17.86 13.37 17.56 13.37L17.56 13.37Q17.16 13.37 16.65 13.43Q16.14 13.48 15.81 13.48L15.81 13.48Q15.40 13.48 15.40 13.31L15.40 13.31Q15.40 13.22 15.48 13.15Q15.55 13.09 15.62 13.09L15.62 13.09Q15.83 13.09 16.03 12.95L16.03 12.95Q16.28 12.75 16.39 12.23Q16.51 11.70 16.51 10.21L16.51 10.21L16.51 8.47Q16.51 8.09 16.53 7.29Q16.55 6.50 16.55 6.05L16.55 6.05Q16.55 5.67 16.52 4.77L16.52 4.77Q16.51 4.37 16.17 4.14Q15.83 3.92 15.39 3.91L15.39 3.91Q15.25 3.91 15.21 3.86Q15.18 3.81 15.18 3.71ZM30.62 13.33L30.62 13.33Q30.62 13.13 30.83 13.06L30.83 13.06Q31.28 12.89 31.61 12.31Q31.95 11.73 33.28 8.83L33.28 8.83Q34.65 5.87 35.70 3.63L35.70 3.63Q35.80 3.42 35.88 3.36Q35.95 3.30 36.12 3.30L36.12 3.30Q36.25 3.30 36.29 3.36Q36.33 3.42 36.47 3.82L36.47 3.82Q36.55 4.06 36.62 4.23Q36.68 4.40 36.82 4.77Q36.96 5.15 37.13 5.56L37.13 5.56Q37.58 6.66 38.67 9.22Q39.77 11.77 39.87 11.98L39.87 11.98Q40.11 12.46 40.40 12.71Q40.70 12.95 40.91 12.97Q41.13 12.99 41.28 13.04Q41.43 13.09 41.43 13.26L41.43 13.26Q41.43 13.47 41.05 13.47L41.05 13.47Q40.89 13.47 40.45 13.43Q40.00 13.38 39.79 13.38L39.79 13.38Q39.52 13.38 39.10 13.41Q38.68 13.44 38.49 13.44L38.49 13.44Q38.05 13.44 37.93 13.40Q37.81 13.37 37.81 13.24L37.81 13.24Q37.81 13.15 37.93 13.08Q38.04 13.02 38.16 13.00Q38.29 12.98 38.40 12.87Q38.51 12.77 38.51 12.59L38.51 12.59Q38.51 12.28 38.16 11.33Q37.81 10.37 37.58 9.93L37.58 9.93Q37.45 9.69 37.00 9.69L37.00 9.69Q36.93 9.69 36.39 9.70Q35.84 9.72 35.31 9.72L35.31 9.72L34.57 9.72Q33.94 9.72 33.77 9.79Q33.61 9.86 33.49 10.12L33.49 10.12Q33.40 10.30 33.21 10.70Q33.01 11.10 32.94 11.26Q32.87 11.41 32.77 11.65Q32.66 11.90 32.63 12.05Q32.59 12.19 32.59 12.31L32.59 12.31Q32.59 12.63 32.75 12.80Q32.91 12.96 33.11 12.98Q33.31 13.01 33.47 13.06Q33.63 13.12 33.63 13.26L33.63 13.26Q33.63 13.36 33.59 13.40Q33.54 13.45 33.39 13.45L33.39 13.45Q33.31 13.45 32.91 13.45Q32.51 13.44 32.23 13.44L32.23 13.44Q31.92 13.44 31.54 13.47Q31.15 13.50 31.02 13.50L31.02 13.50Q30.62 13.50 30.62 13.33ZM34.13 8.71L34.13 8.71Q34.13 8.89 34.26 8.93Q34.38 8.97 34.85 8.97L34.85 8.97L35.28 8.97L36.61 8.96Q37.16 8.96 37.16 8.74L37.16 8.74Q37.16 8.55 36.47 7.01Q35.78 5.46 35.60 5.46L35.60 5.46Q35.48 5.46 34.80 7.01Q34.13 8.55 34.13 8.71ZM48.99 3.77L48.99 3.77Q48.99 3.68 49.08 3.60Q49.18 3.53 49.34 3.53L49.34 3.53Q49.42 3.53 49.62 3.54Q49.81 3.54 49.87 3.54L49.87 3.54Q50.08 3.54 50.26 3.53Q50.44 3.51 50.55 3.51L50.55 3.51Q50.68 3.51 50.85 3.59Q51.02 3.67 51.04 3.75L51.04 3.75Q51.07 3.79 51.20 3.94Q51.32 4.09 51.53 4.33Q51.74 4.56 51.91 4.79L51.91 4.79Q53.82 7.27 57.01 10.77L57.01 10.77Q57.09 10.86 57.21 10.99Q57.33 11.12 57.38 11.18Q57.43 11.24 57.48 11.30Q57.54 11.35 57.58 11.38Q57.61 11.40 57.64 11.40L57.64 11.40Q57.78 11.40 57.78 10.53L57.78 10.53L57.78 8.89Q57.78 7.95 57.77 7.31Q57.76 6.66 57.76 6.38Q57.75 6.09 57.75 6.02L57.75 6.02L57.75 5.92Q57.75 5.45 57.69 5.11Q57.62 4.77 57.54 4.59Q57.46 4.41 57.30 4.28Q57.13 4.16 57.02 4.12Q56.91 4.09 56.70 4.05Q56.49 4.00 56.41 3.98L56.41 3.98Q56.13 3.89 56.13 3.74L56.13 3.74Q56.13 3.53 56.39 3.53L56.39 3.53Q56.48 3.53 57.06 3.54Q57.65 3.54 57.72 3.54L57.72 3.54Q58.06 3.54 58.47 3.53Q58.88 3.51 58.98 3.51L58.98 3.51Q59.22 3.51 59.31 3.56Q59.40 3.61 59.40 3.75L59.40 3.75Q59.40 3.81 59.33 3.86Q59.25 3.91 59.16 3.94Q59.08 3.98 59.00 4.00L59.00 4.00L58.91 4.03Q58.45 4.28 58.45 5.61L58.45 5.61L58.45 6.15Q58.45 7.21 58.37 9.83Q58.30 12.46 58.30 13.08L58.30 13.08L58.30 13.36Q58.30 13.68 58.10 13.68L58.10 13.68Q57.97 13.68 57.88 13.58L57.88 13.58Q53.23 8.19 52.33 7.17Q51.42 6.16 51.32 6.16L51.32 6.16Q51.18 6.16 51.18 7.11L51.18 7.11Q51.18 8.44 51.13 9.97Q51.07 11.51 51.07 11.65L51.07 11.65Q51.07 12.28 51.29 12.61Q51.51 12.94 51.76 12.98Q52.01 13.02 52.23 13.07Q52.44 13.12 52.44 13.26L52.44 13.26Q52.44 13.41 52.40 13.45Q52.35 13.50 52.22 13.50L52.22 13.50Q52.12 13.50 51.78 13.48Q51.44 13.47 50.72 13.47L50.72 13.47Q50.60 13.47 50.20 13.48Q49.81 13.50 49.53 13.50L49.53 13.50Q49.22 13.50 49.22 13.27L49.22 13.27Q49.22 13.15 49.41 13.11Q49.59 13.08 49.85 12.89Q50.12 12.71 50.26 12.21L50.26 12.21Q50.34 11.89 50.47 9.60Q50.60 7.32 50.60 6.45L50.60 6.45Q50.60 5.25 50.26 4.65Q49.92 4.06 49.17 3.98L49.17 3.98Q48.99 3.96 48.99 3.77ZM67.16 3.77L67.16 3.77Q67.16 3.68 67.26 3.60Q67.35 3.53 67.51 3.53L67.51 3.53Q67.59 3.53 67.79 3.54Q67.98 3.54 68.04 3.54L68.04 3.54Q68.25 3.54 68.43 3.53Q68.61 3.51 68.73 3.51L68.73 3.51Q68.85 3.51 69.02 3.59Q69.19 3.67 69.22 3.75L69.22 3.75Q69.24 3.79 69.37 3.94Q69.50 4.09 69.71 4.33Q69.92 4.56 70.08 4.79L70.08 4.79Q71.99 7.27 75.18 10.77L75.18 10.77Q75.26 10.86 75.38 10.99Q75.50 11.12 75.55 11.18Q75.60 11.24 75.66 11.30Q75.71 11.35 75.75 11.38Q75.78 11.40 75.81 11.40L75.81 11.40Q75.95 11.40 75.95 10.53L75.95 10.53L75.95 8.89Q75.95 7.95 75.94 7.31Q75.94 6.66 75.93 6.38Q75.92 6.09 75.92 6.02L75.92 6.02L75.92 5.92Q75.92 5.45 75.86 5.11Q75.80 4.77 75.71 4.59Q75.63 4.41 75.47 4.28Q75.31 4.16 75.19 4.12Q75.08 4.09 74.87 4.05Q74.66 4.00 74.58 3.98L74.58 3.98Q74.30 3.89 74.30 3.74L74.30 3.74Q74.30 3.53 74.56 3.53L74.56 3.53Q74.65 3.53 75.24 3.54Q75.82 3.54 75.89 3.54L75.89 3.54Q76.23 3.54 76.64 3.53Q77.06 3.51 77.15 3.51L77.15 3.51Q77.39 3.51 77.48 3.56Q77.57 3.61 77.57 3.75L77.57 3.75Q77.57 3.81 77.50 3.86Q77.42 3.91 77.34 3.94Q77.25 3.98 77.17 4.00L77.17 4.00L77.08 4.03Q76.62 4.28 76.62 5.61L76.62 5.61L76.62 6.15Q76.62 7.21 76.55 9.83Q76.47 12.46 76.47 13.08L76.47 13.08L76.47 13.36Q76.47 13.68 76.27 13.68L76.27 13.68Q76.15 13.68 76.05 13.58L76.05 13.58Q71.40 8.19 70.50 7.17Q69.59 6.16 69.50 6.16L69.50 6.16Q69.36 6.16 69.36 7.11L69.36 7.11Q69.36 8.44 69.30 9.97Q69.24 11.51 69.24 11.65L69.24 11.65Q69.24 12.28 69.46 12.61Q69.68 12.94 69.93 12.98Q70.18 13.02 70.40 13.07Q70.62 13.12 70.62 13.26L70.62 13.26Q70.62 13.41 70.57 13.45Q70.52 13.50 70.39 13.50L70.39 13.50Q70.29 13.50 69.95 13.48Q69.61 13.47 68.89 13.47L68.89 13.47Q68.77 13.47 68.38 13.48Q67.98 13.50 67.70 13.50L67.70 13.50Q67.40 13.50 67.40 13.27L67.40 13.27Q67.40 13.15 67.58 13.11Q67.76 13.08 68.03 12.89Q68.29 12.71 68.43 12.21L68.43 12.21Q68.52 11.89 68.64 9.60Q68.77 7.32 68.77 6.45L68.77 6.45Q68.77 5.25 68.43 4.65Q68.10 4.06 67.34 3.98L67.34 3.98Q67.16 3.96 67.16 3.77ZM85.33 3.71L85.33 3.71Q85.33 3.50 85.72 3.50L85.72 3.50Q85.86 3.50 86.37 3.53Q86.87 3.56 87.30 3.56L87.30 3.56Q87.57 3.56 87.81 3.54Q88.06 3.53 88.54 3.53L88.54 3.53Q88.91 3.53 88.91 3.72L88.91 3.72Q88.91 3.84 88.27 4.10L88.27 4.10Q87.82 4.28 87.82 5.71L87.82 5.71Q87.82 7.60 87.80 9.05Q87.78 10.50 87.78 10.89L87.78 10.89Q87.78 12.07 88.13 12.59L88.13 12.59Q88.44 13.02 88.80 13.02L88.80 13.02Q88.83 13.02 88.94 13.03Q89.05 13.03 89.08 13.03L89.08 13.03Q89.18 13.03 89.28 13.08Q89.38 13.13 89.38 13.19L89.38 13.19Q89.38 13.34 89.30 13.39Q89.22 13.44 89.03 13.44L89.03 13.44Q88.61 13.44 88.25 13.41Q87.89 13.38 87.70 13.38L87.70 13.38Q87.30 13.38 86.84 13.42Q86.38 13.45 86.16 13.45L86.16 13.45Q85.53 13.45 85.53 13.24L85.53 13.24Q85.53 13.12 85.66 13.07Q85.79 13.02 85.96 13.00Q86.13 12.98 86.31 12.82Q86.49 12.66 86.56 12.35L86.56 12.35Q86.59 12.25 86.65 10.76Q86.72 9.27 86.72 8.61L86.72 8.61L86.72 7.81Q86.72 7.63 86.72 7.12Q86.73 6.61 86.73 6.30L86.73 6.30L86.73 5.66Q86.73 5.04 86.67 4.63L86.67 4.63Q86.63 4.30 86.30 4.12Q85.97 3.93 85.62 3.92L85.62 3.92Q85.33 3.91 85.33 3.71ZM96.92 3.77L96.92 3.77Q96.92 3.68 97.02 3.60Q97.12 3.53 97.27 3.53L97.27 3.53Q97.36 3.53 97.55 3.54Q97.75 3.54 97.80 3.54L97.80 3.54Q98.01 3.54 98.20 3.53Q98.38 3.51 98.49 3.51L98.49 3.51Q98.62 3.51 98.78 3.59Q98.95 3.67 98.98 3.75L98.98 3.75Q99.01 3.79 99.13 3.94Q99.26 4.09 99.47 4.33Q99.68 4.56 99.85 4.79L99.85 4.79Q101.75 7.27 104.94 10.77L104.94 10.77Q105.03 10.86 105.15 10.99Q105.27 11.12 105.31 11.18Q105.36 11.24 105.42 11.30Q105.48 11.35 105.51 11.38Q105.55 11.40 105.57 11.40L105.57 11.40Q105.71 11.40 105.71 10.53L105.71 10.53L105.71 8.89Q105.71 7.95 105.71 7.31Q105.70 6.66 105.69 6.38Q105.69 6.09 105.69 6.02L105.69 6.02L105.69 5.92Q105.69 5.45 105.62 5.11Q105.56 4.77 105.48 4.59Q105.39 4.41 105.23 4.28Q105.07 4.16 104.96 4.12Q104.85 4.09 104.64 4.05Q104.43 4.00 104.34 3.98L104.34 3.98Q104.06 3.89 104.06 3.74L104.06 3.74Q104.06 3.53 104.33 3.53L104.33 3.53Q104.41 3.53 105 3.54Q105.59 3.54 105.66 3.54L105.66 3.54Q105.99 3.54 106.41 3.53Q106.82 3.51 106.92 3.51L106.92 3.51Q107.16 3.51 107.25 3.56Q107.34 3.61 107.34 3.75L107.34 3.75Q107.34 3.81 107.26 3.86Q107.18 3.91 107.10 3.94Q107.02 3.98 106.93 4.00L106.93 4.00L106.85 4.03Q106.39 4.28 106.39 5.61L106.39 5.61L106.39 6.15Q106.39 7.21 106.31 9.83Q106.23 12.46 106.23 13.08L106.23 13.08L106.23 13.36Q106.23 13.68 106.04 13.68L106.04 13.68Q105.91 13.68 105.81 13.58L105.81 13.58Q101.16 8.19 100.26 7.17Q99.36 6.16 99.26 6.16L99.26 6.16Q99.12 6.16 99.12 7.11L99.12 7.11Q99.12 8.44 99.06 9.97Q99.01 11.51 99.01 11.65L99.01 11.65Q99.01 12.28 99.22 12.61Q99.44 12.94 99.69 12.98Q99.95 13.02 100.16 13.07Q100.38 13.12 100.38 13.26L100.38 13.26Q100.38 13.41 100.33 13.45Q100.28 13.50 100.16 13.50L100.16 13.50Q100.06 13.50 99.71 13.48Q99.37 13.47 98.66 13.47L98.66 13.47Q98.53 13.47 98.14 13.48Q97.75 13.50 97.47 13.50L97.47 13.50Q97.16 13.50 97.16 13.27L97.16 13.27Q97.16 13.15 97.34 13.11Q97.52 13.08 97.79 12.89Q98.06 12.71 98.20 12.21L98.20 12.21Q98.28 11.89 98.41 9.60Q98.53 7.32 98.53 6.45L98.53 6.45Q98.53 5.25 98.20 4.65Q97.86 4.06 97.10 3.98L97.10 3.98Q96.92 3.96 96.92 3.77ZM115.43 8.83L115.43 8.83Q115.43 7.31 116.04 6.09Q116.65 4.87 117.91 4.12Q119.17 3.37 120.90 3.37L120.90 3.37Q121.58 3.37 122.16 3.48Q122.75 3.58 123.13 3.72Q123.51 3.86 123.79 4.01Q124.07 4.16 124.21 4.26Q124.36 4.37 124.39 4.37L124.39 4.37Q124.43 4.37 124.58 4.26Q124.73 4.16 124.78 4.16L124.78 4.16Q124.99 4.16 124.99 4.44L124.99 4.44Q125.01 4.84 125.05 5.29Q125.10 5.74 125.15 6.03Q125.19 6.33 125.19 6.38L125.19 6.38Q125.19 6.62 125.02 6.62Q124.85 6.62 124.78 6.45L124.78 6.45Q124.29 5.39 123.14 4.65Q122.00 3.92 120.78 3.92L120.78 3.92Q119.03 3.92 117.89 5.02Q116.75 6.12 116.75 8.06L116.75 8.06Q116.75 9.35 117.22 10.49Q117.70 11.62 118.67 12.36Q119.64 13.10 120.90 13.10L120.90 13.10Q121.98 13.10 122.86 12.61Q123.73 12.12 123.83 11.49L123.83 11.49Q123.87 11.16 123.87 9.73L123.87 9.73Q123.87 9.18 123.63 8.95L123.63 8.95Q123.47 8.78 123.02 8.72L123.02 8.72Q122.60 8.68 122.53 8.55L122.53 8.55Q122.50 8.50 122.50 8.41L122.50 8.41Q122.50 8.26 122.75 8.26L122.75 8.26Q122.93 8.26 123.54 8.29Q124.14 8.33 124.31 8.33L124.31 8.33Q124.59 8.33 124.91 8.32Q125.23 8.32 125.43 8.32L125.43 8.32L125.64 8.32Q125.86 8.32 125.86 8.44L125.86 8.44Q125.86 8.54 125.50 8.69Q125.15 8.85 125.10 9.09L125.10 9.09Q125.01 9.69 125.01 10.65L125.01 10.65Q125.01 11.07 125.02 11.40Q125.03 11.72 125.04 11.85Q125.05 11.98 125.06 12.08Q125.08 12.18 125.08 12.22L125.08 12.22Q125.08 12.29 124.97 12.33Q124.87 12.36 124.63 12.42Q124.39 12.49 124.19 12.60L124.19 12.60L124.10 12.66Q124.00 12.73 123.90 12.78Q123.80 12.84 123.64 12.92Q123.48 13.01 123.31 13.09Q123.14 13.17 122.93 13.26Q122.72 13.36 122.50 13.43Q122.28 13.50 122.04 13.55Q121.80 13.61 121.54 13.64Q121.28 13.68 121.03 13.68L121.03 13.68Q119.50 13.68 118.38 13.26Q117.25 12.85 116.63 12.14Q116.02 11.44 115.72 10.61Q115.43 9.79 115.43 8.83ZM143.53 3.68L143.53 3.68Q143.53 3.64 143.55 3.60Q143.57 3.56 143.66 3.50Q143.75 3.44 143.89 3.44L143.89 3.44L144.27 3.44Q144.61 3.44 145.35 3.49Q146.10 3.53 147.31 3.53L147.31 3.53Q148.30 3.53 149.07 3.49Q149.84 3.46 150.49 3.46L150.49 3.46Q150.72 3.46 150.72 3.79L150.72 3.79Q150.72 3.92 150.70 4.11Q150.67 4.30 150.61 4.61Q150.56 4.93 150.53 5.22L150.53 5.22Q150.50 5.50 150.32 5.50L150.32 5.50Q150.12 5.50 150.12 5.22L150.12 5.22Q150.12 4.30 149.48 4.26L149.48 4.26Q147.36 4.09 146.96 4.09L146.96 4.09Q146.33 4.09 146.18 4.24Q146.03 4.40 146.02 4.87L146.02 4.87Q146.02 4.94 146.02 4.98L146.02 4.98Q145.98 5.74 145.98 7.32L145.98 7.32Q145.98 8.01 146.23 8.02L146.23 8.02Q146.30 8.02 146.42 8.03Q146.54 8.04 146.58 8.04L146.58 8.04Q146.68 8.04 146.87 8.03Q147.07 8.02 147.18 8.02L147.18 8.02L147.62 8.02Q148.46 8.02 148.73 7.97Q149.00 7.92 149.23 7.77L149.23 7.77Q149.35 7.69 149.42 7.57Q149.49 7.46 149.52 7.31Q149.55 7.15 149.59 7.08Q149.63 7.01 149.76 7.01Q149.88 7.01 149.91 7.06Q149.94 7.10 149.94 7.24L149.94 7.24Q149.94 7.34 149.88 7.73Q149.81 8.12 149.81 8.40L149.81 8.40Q149.81 8.67 149.86 9.05Q149.91 9.44 149.91 9.55L149.91 9.55Q149.91 9.77 149.86 9.83Q149.81 9.90 149.72 9.90L149.72 9.90Q149.48 9.90 149.42 9.55L149.42 9.55Q149.42 9.52 149.41 9.42Q149.39 9.32 149.39 9.28Q149.38 9.24 149.35 9.16Q149.32 9.09 149.30 9.04Q149.27 9.00 149.23 8.95Q149.18 8.90 149.11 8.88L149.11 8.88Q148.92 8.79 148.41 8.74Q147.91 8.68 147.76 8.68L147.76 8.68L146.54 8.68Q145.96 8.68 145.96 8.95L145.96 8.95Q145.96 9.35 145.95 9.96Q145.94 10.57 145.94 10.96L145.94 10.96Q145.94 11.06 145.93 11.25Q145.92 11.44 145.92 11.52L145.92 11.52Q145.92 11.80 145.98 12.08Q146.03 12.36 146.31 12.67Q146.58 12.98 147.04 12.98L147.04 12.98Q147.46 12.98 147.46 13.23L147.46 13.23Q147.46 13.27 147.43 13.33Q147.41 13.38 147.30 13.44Q147.20 13.50 147.03 13.50L147.03 13.50Q146.80 13.50 146.32 13.44Q145.84 13.38 145.67 13.38L145.67 13.38Q145.28 13.38 144.79 13.43Q144.31 13.47 143.98 13.47L143.98 13.47Q143.70 13.47 143.70 13.31L143.70 13.31Q143.70 13.13 143.76 13.09Q143.82 13.05 144.30 12.88L144.30 12.88Q144.66 12.75 144.75 12.13Q144.83 11.51 144.84 9.60L144.84 9.60Q144.84 8.86 144.84 8.44L144.84 8.44Q144.84 8.06 144.86 7.26Q144.89 6.45 144.89 6.01L144.89 6.01L144.89 5.19Q144.89 4.27 144.23 3.96L144.23 3.96Q144.13 3.92 143.99 3.90Q143.85 3.88 143.76 3.88Q143.67 3.88 143.60 3.83Q143.53 3.78 143.53 3.68ZM158.62 8.69L158.62 8.69Q158.62 6.34 160.03 4.84Q161.45 3.33 164.04 3.33L164.04 3.33Q165.24 3.33 166.21 3.68Q167.17 4.03 167.73 4.54Q168.29 5.05 168.67 5.71Q169.05 6.37 169.19 6.92Q169.33 7.48 169.33 7.95L169.33 7.95Q169.33 9.86 168.59 11.16Q167.85 12.47 166.63 13.07Q165.42 13.66 163.84 13.66L163.84 13.66Q162.18 13.66 160.97 12.94Q159.75 12.21 159.19 11.10Q158.62 10.00 158.62 8.69ZM159.85 7.98L159.85 7.98Q159.85 8.54 160.01 9.19Q160.16 9.84 160.51 10.54Q160.86 11.23 161.36 11.78Q161.85 12.33 162.62 12.69Q163.38 13.05 164.29 13.05L164.29 13.05Q164.77 13.05 165.29 12.90Q165.82 12.75 166.33 12.45Q166.85 12.14 167.26 11.70Q167.66 11.26 167.92 10.62Q168.18 9.98 168.18 9.24L168.18 9.24Q168.18 6.71 166.85 5.30Q165.52 3.89 163.56 3.89L163.56 3.89Q162.02 3.89 160.94 4.93Q159.85 5.96 159.85 7.98ZM177.23 3.70L177.23 3.70Q177.23 3.47 177.63 3.47L177.63 3.47L179.96 3.47Q180.28 3.47 180.70 3.45Q181.12 3.43 181.36 3.43L181.36 3.43Q182.62 3.43 183.51 4.07Q184.41 4.70 184.41 5.78L184.41 5.78Q184.41 6.50 184.13 7.03Q183.86 7.57 183.53 7.81Q183.20 8.05 182.93 8.22Q182.66 8.40 182.66 8.46L182.66 8.46Q182.66 8.62 183.83 10.27Q185.01 11.91 185.44 12.38L185.44 12.38Q185.98 13.03 186.73 13.03L186.73 13.03Q186.93 13.03 186.93 13.20L186.93 13.20Q186.93 13.41 186.76 13.48Q186.59 13.55 185.89 13.55L185.89 13.55Q185.23 13.55 184.69 13.23L184.69 13.23Q183.99 12.82 182.32 10.09L182.32 10.09Q182.22 9.94 182.18 9.87L182.18 9.87Q181.51 8.78 181.15 8.78L181.15 8.78L180.85 8.78L180.00 8.78Q179.83 8.78 179.79 8.92Q179.76 9.06 179.76 9.77L179.76 9.77Q179.76 10.44 179.76 10.88Q179.76 11.31 179.77 11.43Q179.77 11.55 179.77 11.63Q179.77 11.70 179.77 11.75L179.77 11.75Q179.77 12.32 180.04 12.63Q180.31 12.95 180.63 13.00Q180.96 13.05 181.23 13.11Q181.50 13.17 181.50 13.31L181.50 13.31Q181.50 13.54 181.24 13.54L181.24 13.54Q181.23 13.54 180.28 13.49Q179.33 13.44 179.24 13.44L179.24 13.44Q178.84 13.44 178.28 13.47Q177.72 13.50 177.70 13.50L177.70 13.50Q177.41 13.50 177.41 13.27L177.41 13.27Q177.41 13.12 177.59 13.05Q177.77 12.99 178.00 12.96Q178.22 12.94 178.40 12.66Q178.58 12.38 178.58 11.86L178.58 11.86Q178.58 11.49 178.59 9.90Q178.60 8.30 178.60 7.45L178.60 7.45Q178.60 6.58 178.59 5.86Q178.58 5.14 178.58 5.08L178.58 5.08Q178.58 4.56 178.37 4.29Q178.16 4.02 177.91 3.98Q177.65 3.95 177.44 3.89Q177.23 3.84 177.23 3.70ZM179.76 5.54L179.76 5.94Q179.76 7.38 179.77 7.72Q179.79 8.06 179.87 8.12L179.87 8.12Q180.08 8.25 180.47 8.25L180.47 8.25L180.61 8.25L181.02 8.25Q182.21 8.25 182.72 7.70Q183.23 7.15 183.23 6.30L183.23 6.30Q183.23 5.43 182.55 4.72Q181.87 4.00 180.50 4.00L180.50 4.00Q179.98 4.00 179.87 4.28Q179.76 4.55 179.76 5.54L179.76 5.54ZM192.56 3.71L192.56 3.71Q192.56 3.51 192.93 3.51L192.93 3.51Q193.02 3.51 193.47 3.54Q193.93 3.56 194.47 3.56L194.47 3.56Q194.87 3.56 195.26 3.54Q195.65 3.51 195.68 3.51L195.68 3.51Q195.80 3.51 195.84 3.55Q195.87 3.58 195.87 3.68L195.87 3.68Q195.87 3.77 195.57 3.92Q195.27 4.07 195.27 4.34L195.27 4.34Q195.27 4.47 195.33 4.65Q195.38 4.83 195.55 5.22Q195.72 5.61 195.91 6.03Q196.10 6.45 196.49 7.33Q196.88 8.20 197.26 9.07L197.26 9.07Q197.36 9.30 197.55 9.74Q197.74 10.18 197.85 10.46Q197.97 10.74 198.11 11.05Q198.25 11.37 198.34 11.52Q198.44 11.68 198.48 11.68L198.48 11.68Q198.53 11.68 198.93 10.81Q199.32 9.94 199.63 9.17L199.63 9.17Q199.68 9.04 199.76 8.89Q199.84 8.74 199.87 8.63Q199.91 8.53 199.91 8.41L199.91 8.41Q199.91 8.25 199.07 6.36Q198.23 4.48 197.99 4.21L197.99 4.21Q197.93 4.14 197.88 4.10Q197.82 4.06 197.77 4.02Q197.72 3.99 197.69 3.97Q197.65 3.95 197.60 3.94Q197.54 3.93 197.52 3.93Q197.50 3.93 197.43 3.93Q197.37 3.92 197.36 3.92L197.36 3.92Q196.97 3.88 196.88 3.84Q196.80 3.81 196.80 3.70L196.80 3.70Q196.80 3.50 197.20 3.50L197.20 3.50Q197.29 3.50 197.75 3.53Q198.21 3.56 198.74 3.56L198.74 3.56Q198.77 3.56 199.12 3.53Q199.47 3.50 199.67 3.50L199.67 3.50Q200.09 3.50 200.09 3.61L200.09 3.61Q200.09 3.70 199.93 3.78Q199.78 3.86 199.63 4.00Q199.49 4.13 199.49 4.33L199.49 4.33Q199.49 4.59 199.92 5.57L199.92 5.57Q199.95 5.63 200.11 6.03Q200.27 6.44 200.40 6.71Q200.52 6.99 200.58 6.99L200.58 6.99Q200.69 6.99 201.14 5.76Q201.59 4.54 201.59 4.31L201.59 4.31Q201.59 4.06 201.38 3.96Q201.17 3.85 200.96 3.80Q200.75 3.75 200.75 3.64L200.75 3.64Q200.75 3.49 201.05 3.49L201.05 3.49Q201.14 3.49 201.47 3.50Q201.81 3.51 201.95 3.51L201.95 3.51L202.19 3.51Q202.38 3.51 202.93 3.47L202.93 3.47L203.06 3.47Q203.24 3.47 203.24 3.61Q203.24 3.75 202.97 3.84Q202.71 3.92 202.61 4.02L202.61 4.02Q202.38 4.24 202.22 4.66L202.22 4.66Q201.92 5.38 201.52 6.33L201.52 6.33Q201.10 7.31 201.03 7.50Q200.96 7.70 200.96 7.85L200.96 7.85Q200.96 7.97 201.81 9.87Q202.66 11.77 202.82 11.77L202.82 11.77Q202.99 11.77 204.45 8.24Q205.91 4.70 205.91 4.35L205.91 4.35Q205.91 4.13 205.75 4.01Q205.59 3.89 205.39 3.87Q205.20 3.85 205.04 3.80Q204.88 3.75 204.88 3.64L204.88 3.64Q204.88 3.54 204.92 3.52Q204.96 3.50 205.14 3.50L205.14 3.50Q205.18 3.50 205.46 3.51Q205.74 3.51 206.02 3.51L206.02 3.51Q206.28 3.51 206.59 3.50Q206.91 3.49 207.27 3.49L207.27 3.49Q207.55 3.49 207.55 3.68L207.55 3.68Q207.55 3.78 207.47 3.84Q207.40 3.89 207.24 3.98Q207.09 4.06 206.98 4.17L206.98 4.17Q206.91 4.24 206.86 4.31Q206.81 4.38 206.75 4.49Q206.70 4.59 206.66 4.66Q206.63 4.73 206.55 4.91Q206.47 5.08 206.43 5.18L206.43 5.18Q205.35 7.59 204.02 10.58L204.02 10.58Q202.96 13.01 202.76 13.41Q202.57 13.82 202.45 13.82L202.45 13.82Q202.38 13.82 202.29 13.64Q202.19 13.47 202.01 13.05Q201.84 12.64 201.81 12.57L201.81 12.57Q201.67 12.26 201.44 11.72Q201.21 11.17 201.05 10.79Q200.89 10.42 200.72 10.02Q200.55 9.63 200.44 9.43Q200.33 9.23 200.28 9.23L200.28 9.23Q200.14 9.23 199.34 11.16Q198.53 13.09 198.48 13.31L198.48 13.31Q198.46 13.37 198.44 13.43Q198.42 13.48 198.41 13.52Q198.39 13.57 198.38 13.61Q198.37 13.65 198.35 13.68Q198.34 13.71 198.33 13.73Q198.32 13.76 198.31 13.78Q198.30 13.80 198.28 13.82Q198.27 13.83 198.25 13.84Q198.24 13.85 198.23 13.85Q198.21 13.86 198.18 13.86L198.18 13.86Q198.06 13.86 197.88 13.46Q197.69 13.06 197.22 11.89Q196.74 10.72 196.25 9.65L196.25 9.65Q195.44 7.87 194.53 5.63L194.53 5.63Q194.26 4.96 193.96 4.57Q193.65 4.19 193.41 4.09Q193.17 3.99 192.98 3.98Q192.78 3.96 192.67 3.92Q192.56 3.88 192.56 3.71ZM213.12 13.33L213.12 13.33Q213.12 13.13 213.33 13.06L213.33 13.06Q213.78 12.89 214.12 12.31Q214.45 11.73 215.78 8.83L215.78 8.83Q217.15 5.87 218.20 3.63L218.20 3.63Q218.30 3.42 218.38 3.36Q218.46 3.30 218.62 3.30L218.62 3.30Q218.75 3.30 218.79 3.36Q218.83 3.42 218.97 3.82L218.97 3.82Q219.06 4.06 219.12 4.23Q219.18 4.40 219.32 4.77Q219.46 5.15 219.63 5.56L219.63 5.56Q220.08 6.66 221.18 9.22Q222.28 11.77 222.38 11.98L222.38 11.98Q222.61 12.46 222.91 12.71Q223.20 12.95 223.42 12.97Q223.64 12.99 223.78 13.04Q223.93 13.09 223.93 13.26L223.93 13.26Q223.93 13.47 223.55 13.47L223.55 13.47Q223.40 13.47 222.95 13.43Q222.50 13.38 222.29 13.38L222.29 13.38Q222.03 13.38 221.61 13.41Q221.19 13.44 220.99 13.44L220.99 13.44Q220.56 13.44 220.44 13.40Q220.32 13.37 220.32 13.24L220.32 13.24Q220.32 13.15 220.43 13.08Q220.54 13.02 220.67 13.00Q220.79 12.98 220.91 12.87Q221.02 12.77 221.02 12.59L221.02 12.59Q221.02 12.28 220.67 11.33Q220.32 10.37 220.08 9.93L220.08 9.93Q219.95 9.69 219.51 9.69L219.51 9.69Q219.44 9.69 218.89 9.70Q218.34 9.72 217.81 9.72L217.81 9.72L217.07 9.72Q216.44 9.72 216.28 9.79Q216.12 9.86 215.99 10.12L215.99 10.12Q215.91 10.30 215.71 10.70Q215.52 11.10 215.45 11.26Q215.38 11.41 215.27 11.65Q215.17 11.90 215.13 12.05Q215.10 12.19 215.10 12.31L215.10 12.31Q215.10 12.63 215.26 12.80Q215.42 12.96 215.61 12.98Q215.81 13.01 215.97 13.06Q216.13 13.12 216.13 13.26L216.13 13.26Q216.13 13.36 216.09 13.40Q216.05 13.45 215.89 13.45L215.89 13.45Q215.81 13.45 215.41 13.45Q215.01 13.44 214.73 13.44L214.73 13.44Q214.42 13.44 214.04 13.47Q213.65 13.50 213.53 13.50L213.53 13.50Q213.12 13.50 213.12 13.33ZM216.64 8.71L216.64 8.71Q216.64 8.89 216.76 8.93Q216.89 8.97 217.35 8.97L217.35 8.97L217.78 8.97L219.11 8.96Q219.66 8.96 219.66 8.74L219.66 8.74Q219.66 8.55 218.97 7.01Q218.29 5.46 218.11 5.46L218.11 5.46Q217.98 5.46 217.31 7.01Q216.64 8.55 216.64 8.71ZM231.49 3.70L231.49 3.70Q231.49 3.47 231.90 3.47L231.90 3.47L234.22 3.47Q234.54 3.47 234.96 3.45Q235.38 3.43 235.62 3.43L235.62 3.43Q236.88 3.43 237.78 4.07Q238.67 4.70 238.67 5.78L238.67 5.78Q238.67 6.50 238.40 7.03Q238.13 7.57 237.80 7.81Q237.47 8.05 237.19 8.22Q236.92 8.40 236.92 8.46L236.92 8.46Q236.92 8.62 238.10 10.27Q239.27 11.91 239.71 12.38L239.71 12.38Q240.24 13.03 241.00 13.03L241.00 13.03Q241.19 13.03 241.19 13.20L241.19 13.20Q241.19 13.41 241.02 13.48Q240.86 13.55 240.16 13.55L240.16 13.55Q239.50 13.55 238.95 13.23L238.95 13.23Q238.25 12.82 236.59 10.09L236.59 10.09Q236.49 9.94 236.45 9.87L236.45 9.87Q235.77 8.78 235.41 8.78L235.41 8.78L235.12 8.78L234.26 8.78Q234.09 8.78 234.06 8.92Q234.02 9.06 234.02 9.77L234.02 9.77Q234.02 10.44 234.02 10.88Q234.02 11.31 234.03 11.43Q234.04 11.55 234.04 11.63Q234.04 11.70 234.04 11.75L234.04 11.75Q234.04 12.32 234.30 12.63Q234.57 12.95 234.90 13.00Q235.23 13.05 235.49 13.11Q235.76 13.17 235.76 13.31L235.76 13.31Q235.76 13.54 235.51 13.54L235.51 13.54Q235.49 13.54 234.54 13.49Q233.59 13.44 233.51 13.44L233.51 13.44Q233.10 13.44 232.54 13.47Q231.98 13.50 231.97 13.50L231.97 13.50Q231.67 13.50 231.67 13.27L231.67 13.27Q231.67 13.12 231.85 13.05Q232.04 12.99 232.26 12.96Q232.48 12.94 232.67 12.66Q232.85 12.38 232.85 11.86L232.85 11.86Q232.85 11.49 232.85 9.90Q232.86 8.30 232.86 7.45L232.86 7.45Q232.86 6.58 232.85 5.86Q232.85 5.14 232.85 5.08L232.85 5.08Q232.85 4.56 232.64 4.29Q232.43 4.02 232.17 3.98Q231.91 3.95 231.70 3.89Q231.49 3.84 231.49 3.70ZM234.02 5.54L234.02 5.94Q234.02 7.38 234.04 7.72Q234.05 8.06 234.14 8.12L234.14 8.12Q234.35 8.25 234.74 8.25L234.74 8.25L234.88 8.25L235.28 8.25Q236.47 8.25 236.98 7.70Q237.50 7.15 237.50 6.30L237.50 6.30Q237.50 5.43 236.82 4.72Q236.14 4.00 234.77 4.00L234.77 4.00Q234.25 4.00 234.14 4.28Q234.02 4.55 234.02 5.54L234.02 5.54ZM248.54 3.64L248.54 3.64Q248.54 3.51 248.66 3.49Q248.78 3.47 249.26 3.47L249.26 3.47L250.47 3.47Q250.82 3.47 251.76 3.44Q252.70 3.42 253.20 3.42L253.20 3.42Q254.17 3.42 255.14 3.71Q256.10 4.00 256.91 4.56Q257.73 5.11 258.23 6.00Q258.73 6.89 258.73 7.98L258.73 7.98Q258.73 8.96 258.60 9.68Q258.47 10.40 258.16 10.93Q257.85 11.45 257.54 11.78Q257.24 12.11 256.70 12.56L256.70 12.56Q256.28 12.89 255.49 13.19Q254.69 13.48 253.85 13.48L253.85 13.48Q253.76 13.48 252.42 13.45Q251.08 13.41 250.49 13.41L250.49 13.41Q250.00 13.41 249.58 13.45Q249.16 13.48 249.09 13.48L249.09 13.48Q248.75 13.48 248.75 13.30L248.75 13.30Q248.75 13.19 248.80 13.14Q248.85 13.09 249.01 13.05Q249.17 13.01 249.24 12.98L249.24 12.98Q249.47 12.88 249.65 12.61Q249.84 12.33 249.84 12.07L249.84 12.07Q249.84 11.28 249.85 10.07Q249.86 8.85 249.86 8.27L249.86 8.27Q249.86 7.77 249.85 6.70Q249.84 5.63 249.84 4.72L249.84 4.72Q249.84 4.48 249.61 4.23Q249.38 3.99 249.10 3.98L249.10 3.98Q248.91 3.96 248.81 3.95Q248.72 3.93 248.63 3.86Q248.54 3.78 248.54 3.64ZM251.02 11.47L251.02 11.47Q251.02 11.73 251.03 11.90Q251.03 12.07 251.08 12.21Q251.13 12.35 251.16 12.40Q251.19 12.46 251.33 12.53Q251.47 12.60 251.54 12.62Q251.62 12.64 251.87 12.71Q252.13 12.78 252.29 12.82L252.29 12.82Q252.78 12.96 253.32 12.96L253.32 12.96L253.60 12.96Q254.55 12.96 255.22 12.69Q255.89 12.42 256.51 11.83L256.51 11.83Q257.54 10.84 257.54 8.61L257.54 8.61Q257.54 7.49 257.10 6.58Q256.66 5.67 255.95 5.13Q255.23 4.59 254.41 4.30Q253.58 4.02 252.74 4.02L252.74 4.02Q252.36 4.02 252.19 4.02Q252.01 4.02 251.78 4.05Q251.55 4.09 251.47 4.11Q251.40 4.13 251.29 4.25Q251.17 4.37 251.15 4.45Q251.13 4.54 251.10 4.78Q251.06 5.03 251.06 5.21Q251.06 5.39 251.06 5.80L251.06 5.80Q251.06 6.10 251.05 7.24Q251.03 8.39 251.03 8.48L251.03 8.48Q251.03 9.32 251.03 10.30Q251.02 11.28 251.02 11.47Z"></path></g></svg>