<svg data-v-fde0c5aa="" xmlns="http://www.w3.org/2000/svg" viewBox="0 0 300 300" class="font"><!----><defs data-v-fde0c5aa=""><!----></defs><rect data-v-fde0c5aa="" fill="transparent" x="0" y="0" width="300px" height="300px" class="logo-background-square"></rect><defs data-v-fde0c5aa=""><linearGradient data-v-fde0c5aa="" gradientTransform="rotate(25)" id="0ac3c399-a2a9-4ab0-bc16-2a5c94953395" x1="0%" y1="0%" x2="100%" y2="0%"><stop data-v-fde0c5aa="" offset="0%" stop-color="#945069" stop-opacity="1"></stop><stop data-v-fde0c5aa="" offset="100%" stop-color="#86C866" stop-opacity="1"></stop></linearGradient></defs><g data-v-fde0c5aa="" id="13819de0-4b01-42a2-ba4c-92beff8217d9" fill="url(#0ac3c399-a2a9-4ab0-bc16-2a5c94953395)" transform="matrix(4.4989773647260805,0,0,4.4989773647260805,35.90593048010889,113.55828270213487)"><path d="M2.39 13.02L2.39 13.02L1.20 13.02Q0.91 13.02 0.91 12.73L0.91 12.73L0.91 4.31Q0.91 4.02 1.20 4.02L1.20 4.02L2.39 4.02Q2.69 4.02 2.69 4.31L2.69 4.31L2.69 8.30L2.72 8.30Q2.83 7.97 3.15 7.43L3.15 7.43L5.28 4.31Q5.46 4.02 5.82 4.02L5.82 4.02L7.20 4.02Q7.35 4.02 7.38 4.11Q7.42 4.20 7.31 4.34L7.31 4.34L4.65 8.02L7.62 12.67Q7.71 12.84 7.65 12.93Q7.59 13.02 7.39 13.02L7.39 13.02L6.37 13.02Q5.88 13.02 5.71 12.73L5.71 12.73L3.57 9.30L2.69 10.33L2.69 12.73Q2.69 13.02 2.39 13.02ZM10.07 13.02L10.07 13.02L8.88 13.02Q8.58 13.02 8.58 12.73L8.58 12.73L8.58 6.17Q8.58 5.88 8.88 5.88L8.88 5.88L10.07 5.88Q10.36 5.88 10.36 6.17L10.36 6.17L10.36 6.65L10.42 6.65Q10.57 6.27 10.96 6.08Q11.35 5.88 11.79 5.88L11.79 5.88L12.29 5.88Q12.57 5.88 12.57 6.17L12.57 6.17L12.57 7.14Q12.57 7.31 12.51 7.37Q12.45 7.43 12.29 7.42L12.29 7.42L11.33 7.42Q10.36 7.42 10.36 8.51L10.36 8.51L10.36 12.73Q10.36 13.02 10.07 13.02ZM13.54 4.68L13.54 4.68L13.54 3.46Q13.54 3.18 13.82 3.18L13.82 3.18L15.04 3.18Q15.32 3.18 15.32 3.44L15.32 3.44L15.32 4.68Q15.32 4.96 15.04 4.96L15.04 4.96L13.82 4.96Q13.54 4.96 13.54 4.68ZM13.54 12.73L13.54 12.73L13.54 6.17Q13.54 5.88 13.82 5.88L13.82 5.88L15.02 5.88Q15.32 5.88 15.32 6.17L15.32 6.17L15.32 12.73Q15.32 12.91 15.25 12.96Q15.19 13.02 15.04 13.02L15.04 13.02L13.83 13.02Q13.54 13.02 13.54 12.73ZM18.07 13.02L18.07 13.02L16.66 13.02Q16.30 13.02 16.46 12.73L16.46 12.73L18.23 9.38L16.46 6.17Q16.32 5.88 16.63 5.88L16.63 5.88L18.06 5.88Q18.40 5.88 18.49 6.17L18.49 6.17L19.38 8.30L19.43 8.30L20.20 6.17Q20.30 5.88 20.64 5.88L20.64 5.88L22.04 5.88Q22.40 5.88 22.22 6.17L22.22 6.17L20.54 9.38L22.34 12.73Q22.41 12.85 22.36 12.94Q22.32 13.02 22.18 13.02L22.18 13.02L20.73 13.02Q20.44 13.02 20.31 12.73L20.31 12.73L19.43 10.58L19.38 10.58L18.49 12.73Q18.40 13.02 18.07 13.02ZM26.32 13.02L26.32 13.02L25.14 13.02Q24.84 13.02 24.84 12.73L24.84 12.73L24.84 5.71Q24.84 5.56 24.68 5.56L24.68 5.56L23.09 5.56Q22.79 5.56 22.79 5.26L22.79 5.26L22.79 4.31Q22.79 4.02 23.09 4.02L23.09 4.02L28.38 4.02Q28.67 4.02 28.67 4.31L28.67 4.31L28.67 5.26Q28.67 5.56 28.38 5.56L28.38 5.56L26.78 5.56Q26.61 5.56 26.61 5.71L26.61 5.71L26.61 12.73Q26.61 13.02 26.32 13.02ZM33.01 13.02L33.01 13.02L31.77 13.02Q30.66 13.02 30.06 12.43Q29.46 11.84 29.46 10.74L29.46 10.74L29.46 8.16Q29.46 7.06 30.06 6.47Q30.66 5.88 31.77 5.88L31.77 5.88L33.01 5.88Q34.10 5.88 34.71 6.47Q35.32 7.07 35.32 8.16L35.32 8.16L35.32 10.74Q35.32 11.83 34.71 12.42Q34.10 13.02 33.01 13.02ZM32.03 11.49L32.03 11.49L32.75 11.49Q33.19 11.49 33.38 11.31Q33.57 11.13 33.57 10.68L33.57 10.68L33.57 8.22Q33.57 7.77 33.38 7.59Q33.19 7.41 32.75 7.41L32.75 7.41L32.03 7.41Q31.58 7.41 31.40 7.59Q31.22 7.77 31.22 8.22L31.22 8.22L31.22 10.68Q31.22 11.13 31.40 11.31Q31.58 11.49 32.03 11.49ZM39.34 13.02L39.34 13.02L38.77 13.02Q37.69 13.02 37.13 12.43Q36.58 11.84 36.58 10.74L36.58 10.74L36.58 8.16Q36.58 7.06 37.13 6.47Q37.69 5.88 38.77 5.88L38.77 5.88L39.34 5.88Q39.77 5.88 40.17 6.07Q40.56 6.26 40.71 6.64L40.71 6.64L40.77 6.64L40.77 3.47Q40.77 3.18 41.06 3.18L41.06 3.18L42.25 3.18Q42.55 3.18 42.55 3.47L42.55 3.47L42.55 12.73Q42.55 13.02 42.25 13.02L42.25 13.02L41.06 13.02Q40.77 13.02 40.77 12.73L40.77 12.73L40.77 12.26L40.71 12.26Q40.56 12.64 40.17 12.83Q39.77 13.02 39.34 13.02ZM40.77 10.42L40.77 10.42L40.77 8.48Q40.77 7.42 39.80 7.42L39.80 7.42L39.17 7.42Q38.72 7.42 38.54 7.61Q38.36 7.80 38.36 8.25L38.36 8.25L38.36 10.65Q38.36 11.10 38.54 11.29Q38.72 11.48 39.17 11.48L39.17 11.48L39.80 11.48Q40.77 11.48 40.77 10.42ZM47.50 13.02L47.50 13.02L46.26 13.02Q45.15 13.02 44.55 12.43Q43.95 11.84 43.95 10.74L43.95 10.74L43.95 8.16Q43.95 7.06 44.55 6.47Q45.15 5.88 46.26 5.88L46.26 5.88L47.50 5.88Q48.59 5.88 49.20 6.47Q49.81 7.07 49.81 8.16L49.81 8.16L49.81 10.74Q49.81 11.83 49.20 12.42Q48.59 13.02 47.50 13.02ZM46.52 11.49L46.52 11.49L47.24 11.49Q47.68 11.49 47.87 11.31Q48.06 11.13 48.06 10.68L48.06 10.68L48.06 8.22Q48.06 7.77 47.87 7.59Q47.68 7.41 47.24 7.41L47.24 7.41L46.52 7.41Q46.07 7.41 45.89 7.59Q45.71 7.77 45.71 8.22L45.71 8.22L45.71 10.68Q45.71 11.13 45.89 11.31Q46.07 11.49 46.52 11.49Z"></path></g><!----><!----></svg>